<svg width="50" height="30" viewBox="0 0 50 30" fill="none" xmlns="http://www.w3.org/2000/svg">
<path d="M4.74805 29.7344C5.17527 29.7344 5.55329 29.5673 5.88195 29.2334L25.2563 9.54401L44.6306 29.2334C44.9592 29.5673 45.3372 29.7344 45.7645 29.7344C46.1917 29.7344 46.5697 29.5673 46.8983 29.2334L49.3633 26.7283C49.6919 26.3944 49.8563 26.0103 49.8563 25.576C49.8563 25.1417 49.6919 24.7576 49.3633 24.4237L26.3901 1.07702C26.0615 0.742949 25.6835 0.575997 25.2563 0.575997C24.829 0.575997 24.451 0.742949 24.1224 1.07702L1.14923 24.4237C0.820578 24.7576 0.65625 25.1417 0.65625 25.576C0.65625 26.0103 0.820578 26.3944 1.14923 26.7283L3.61417 29.2334C3.94281 29.5673 4.32083 29.7344 4.74805 29.7344Z" fill="white"/>
</svg>
